<svg width="17" height="17" viewBox="0 0 17 17" fill="none" xmlns="http://www.w3.org/2000/svg">
<rect width="17" height="17" rx="3.58594" fill="#ED5338"/>
<path fill-rule="evenodd" clip-rule="evenodd" d="M7.0873 3.00102C6.85206 3.02828 6.129 3.3576 5.92358 3.46539C5.56362 3.65425 5.23233 3.88567 4.95117 4.11577C4.80701 4.23375 4.65265 4.37221 4.52396 4.50532C4.22962 4.8097 4.03207 5.05836 3.80038 5.40517L3.50546 5.91069C3.49055 5.96519 3.44394 6.04394 3.41993 6.0983C3.21625 6.55953 3.07742 6.94542 2.98853 7.47148C2.89079 8.04991 2.89721 8.36781 2.90855 8.9326C2.91039 9.02541 2.9468 9.36615 2.93067 9.42274C2.9323 9.42518 2.93376 9.4285 2.9346 9.43057L2.9439 9.45556C2.94538 9.46139 2.94718 9.4757 2.94797 9.48226C3.03365 10.2105 3.08606 10.5206 3.27869 11.276C3.35476 11.5743 3.70607 12.8511 3.67503 13.0754C3.71549 13.1267 3.72012 13.6422 3.72537 13.7031C3.77461 14.2749 4.37757 14.2775 4.81705 14.1759C4.90713 14.1551 5.00781 14.1154 5.09365 14.0999C5.11828 14.0821 5.20996 14.0522 5.24796 14.0366C5.60384 13.8903 5.95248 13.662 6.19365 13.3737C6.22702 13.3826 6.4416 13.5413 6.48601 13.5698C6.82275 13.7858 7.0853 13.9446 7.49066 14.0594C8.04753 14.2172 8.72031 14.2183 9.31824 14.1679C10.0505 14.0892 10.6336 13.9035 11.2658 13.591C11.3017 13.5732 11.3464 13.5508 11.3828 13.5312C11.4245 13.5087 11.4662 13.4795 11.509 13.4631C11.5322 13.4443 11.5877 13.4148 11.6215 13.3958C11.8049 13.2928 12.2076 12.9973 12.3465 12.8718C12.3757 12.8454 12.4153 12.8111 12.4477 12.786C12.4834 12.7584 12.5071 12.7292 12.5402 12.7014C12.6606 12.6006 12.9134 12.3222 13.0197 12.1969C14.0642 10.9667 14.5041 9.4151 14.3119 7.75685C14.2868 7.54063 14.2456 7.34974 14.2012 7.14478C14.1395 6.85955 14.0422 6.58523 13.9398 6.32074C13.9081 6.23895 13.8726 6.15407 13.8339 6.07257L13.5941 5.59808C13.5747 5.57252 13.5495 5.52178 13.5264 5.48521C13.3369 5.18601 13.2184 5.00438 12.9763 4.72621L12.7095 4.43172C12.6747 4.39653 12.6466 4.37575 12.6127 4.34167C12.4857 4.21425 12.3645 4.1043 12.2167 3.98972L12.0039 3.82879C11.7314 3.62796 11.2479 3.3421 10.9316 3.21905C10.8847 3.20079 10.8411 3.1827 10.7982 3.16572L10.2525 2.97239C10.201 2.97426 9.95988 2.90499 9.88499 2.88944C9.75822 2.86315 9.62723 2.8412 9.50036 2.82405C9.01901 2.75903 8.29004 2.7483 7.81343 2.83961C7.65334 2.87027 7.21782 2.94503 7.0873 3.00102ZM5.90284 7.8086C5.87392 7.84141 5.85 7.97985 5.82695 8.08984C5.80613 8.18929 5.79008 8.29222 5.77744 8.39477C5.70173 9.00907 5.72529 9.77531 5.849 10.3653C5.91859 10.6972 6.03428 11.2107 6.24295 11.3878C6.44484 11.5591 7.02138 10.9411 7.107 10.8918C7.11512 10.8948 7.48092 11.1075 7.64299 11.1745C7.84782 11.2591 8.03548 11.3184 8.2758 11.3582C8.51851 11.3984 8.80884 11.3869 9.04719 11.356C9.17877 11.3389 9.6343 11.24 9.69716 11.1776C9.7784 11.1711 10.0809 11.0035 10.1611 10.9534C10.6085 10.6742 10.9037 10.3665 11.1852 9.90118C11.5462 9.3044 11.6816 8.40089 11.4245 7.62455C11.223 7.01608 10.7748 6.38963 10.2187 6.05518C9.90527 5.86671 9.63159 5.72469 9.24095 5.64757C9.04418 5.60872 8.8207 5.5782 8.60961 5.58506C8.48921 5.58896 8.04681 5.61125 7.98184 5.66883C7.87976 5.64218 7.35812 5.88357 7.23247 5.96235C6.75455 6.26209 6.47679 6.57639 6.20121 7.04735C6.13746 7.15629 5.89675 7.68539 5.90284 7.8086Z" fill="#FEFEFE"/>
</svg>
