<svg xmlns="http://www.w3.org/2000/svg" fill="none" viewBox="-0.5 -0.5 48 48" id="Rotate-Left--Streamline-Plump.svg"><desc>Rotate Left Streamline Icon: https://streamlinehq.com</desc><g id="Rotate-Left--Streamline-Plump.svg"><path id="Union" stroke="#000000" stroke-linecap="round" stroke-linejoin="round" d="M23.344018749999996 2.9375c11.442052083333332 0 20.717697916666665 9.60063125 20.717697916666665 20.871427083333334 0 4.804183333333333 -1.6853416666666667 9.220616666666666 -4.505341666666667 12.707037499999998 -0.7592458333333333 0.9386291666666666 -2.1800166666666665 0.8126104166666666 -2.87904375 -0.17164791666666668l-1.64764375 -2.3200375c-0.5204270833333333 -0.7327104166666666 -0.46265624999999994 -1.7177520833333333 0.04416041666666667 -2.4599604166666666 1.5130083333333333 -2.2159520833333333 2.3959229166666662 -4.88418125 2.3959229166666662 -7.755391666666666 0 -7.6846958333333335 -6.324339583333333 -13.45051875 -14.125752083333332 -13.45051875 -3.401625 0 -6.3107291666666665 1.3690708333333335 -8.59130625 3.47946875 0.6345 0.39891249999999995 1.1661875 0.7450479166666667 1.6105333333333334 1.0430083333333333 1.0916729166666665 0.7321229166666666 0.9335375 2.1829541666666668 -0.27299166666666663 2.7067104166666667 -4.285714583333333 1.8606124999999998 -7.576791666666667 2.382704166666666 -9.177357083333332 2.52830625 -0.667723125 0.06070833333333333 -1.2781062499999998 -0.2919875 -1.5590781249999999 -0.9007354166666667 -0.674303125 -1.4610145833333332 -1.869219375 -4.5782895833333335 -2.4044710416666666 -9.229331250000001 -0.15059583333333332 -1.3085877083333333 1.0285460416666665 -2.1713902083333334 2.2089412499999996 -1.5888447916666666 0.5843177083333333 0.28837437499999996 1.2948010416666664 0.6534664583333333 2.1525804166666664 1.1148987499999998C11.283329166666666 5.395061458333333 17.165477083333332 2.9375 23.344018749999996 2.9375Z" stroke-width="1"></path><path id="Union_2" stroke="#000000" stroke-linecap="round" stroke-linejoin="round" d="M32.91968125 39.507416666666664c0.6597624999999999 0.9290333333333333 0.3925479166666666 2.231325 -0.638025 2.71748125 -1.9403166666666667 0.9153249999999999 -4.047679166666667 1.5417958333333333 -6.265002083333333 1.8230125 -1.1966395833333332 0.15177083333333333 -2.1379124999999997 -0.9181645833333333 -1.9664604166666668 -2.112258333333333l0.39382083333333334 -2.74156875c0.12895625 -0.8976999999999999 0.8609812499999999 -1.5751854166666666 1.7499666666666664 -1.7544708333333334 0.8905520833333332 -0.17977500000000002 1.7506520833333332 -0.44199583333333337 2.5714875 -0.7783395833333333 0.9279562499999999 -0.38011249999999996 2.0278541666666667 -0.14775625 2.6085000000000003 0.6697500000000001l1.5457125 2.17639375Z" stroke-width="1"></path><path id="Union_3" stroke="#000000" stroke-linecap="round" stroke-linejoin="round" d="M19.149170833333333 41.62222083333334c-0.16254166666666667 1.1317208333333333 -1.2606770833333334 1.89263125 -2.341089583333333 1.51898125 -1.8873437499999999 -0.6526145833333333 -3.62164375 -1.5846833333333334 -5.171370833333333 -2.747933333333333 -0.9281520833333332 -0.6966770833333333 -0.8937833333333333 -2.0564458333333335 -0.015274999999999999 -2.814614583333333l1.7919729166666667 -1.5462999999999998c0.6552583333333333 -0.56546875 1.5990770833333332 -0.6233375 2.365960416666667 -0.22187916666666666 0.7297729166666665 0.38197291666666666 1.49019375 0.7128333333333333 2.27098125 0.9869020833333333 0.95733125 0.33614791666666666 1.6090645833333332 1.2731124999999999 1.4648333333333332 2.2774437499999998l-0.3660125 2.5473999999999997Z" stroke-width="1"></path><path id="Union_4" stroke="#000000" stroke-linecap="round" stroke-linejoin="round" d="M9.7382825 30.250375c0.53738625 0.9095479166666666 0.44603 2.1020749999999997 -0.35374354166666666 2.7922895833333334l-0.8078516666666666 0.6970687499999999c-0.9035847916666666 0.7798083333333333 -2.294980625 0.5779041666666666 -2.8241222916666664 -0.4919333333333333 -0.5398243749999999 -1.0913791666666666 -0.9911516666666667 -2.2408229166666667 -1.3466772916666665 -3.4371687499999997 -0.3490925 -1.1746083333333333 0.5801366666666666 -2.2906625 1.805534375 -2.2906625h0.8662491666666666c0.8780677083333334 0 1.6333870833333333 0.5922979166666666 1.9815102083333334 1.3983479166666666 0.1970475 0.45638958333333335 0.4243414583333333 0.9008333333333334 0.6791010416666666 1.3320583333333333Z" stroke-width="1"></path></g></svg>