<svg xmlns="http://www.w3.org/2000/svg" fill="none" viewBox="-0.5 -0.5 48 48" id="File-Check-Alternate--Streamline-Plump.svg"><desc>File Check Alternate Streamline Icon: https://streamlinehq.com</desc><g id="File-Check-Alternate--Streamline-Plump.svg"><path id="Subtract" stroke="#000000" stroke-linecap="round" stroke-linejoin="round" d="M28.532916666666665 42.0914375c5.012354166666666 -0.0616875 8.560854166666667 -0.3368333333333333 10.876583333333333 -0.6012083333333333 2.154166666666667 -0.24675 3.7697916666666664 -1.8633541666666666 4.006749999999999 -4.019479166666667 0.31235416666666665 -2.8297916666666665 0.64625 -7.579729166666666 0.64625 -14.949916666666667 0 -2.8160833333333333 -0.04895833333333333 -5.249312499999999 -0.12729166666666666 -7.339833333333334 -0.3436875 -0.9615416666666666 -1.5177083333333332 -3.4936666666666665 -5.156291666666666 -7.0597916666666665 -3.858895833333333 -3.7834999999999996 -6.531041666666666 -4.848833333333333 -7.362354166666666 -5.108312499999999A158.42524999999998 158.42524999999998 0 0 0 26.4375 2.9375c-6.1335 0 -10.345875 0.31333333333333335 -12.972 0.6139375 -2.1551458333333335 0.24675 -3.7697916666666664 1.8633541666666666 -4.006749999999999 4.019479166666667 -0.2203125 1.9916249999999998 -0.4504166666666667 4.935 -0.5679166666666666 9.074916666666667" stroke-width="1"></path><path id="Intersect" stroke="#000000" stroke-linecap="round" stroke-linejoin="round" d="M43.94891666666666 15.6275c-2.0435208333333335 0.30354166666666665 -5.718333333333333 0.0705 -8.507 -0.188a4.566833333333333 4.566833333333333 0 0 1 -4.139916666666666 -4.1222916666666665c-0.26339583333333333 -2.7446041666666665 -0.4964375 -6.33325 -0.17722916666666666 -8.312145833333334" stroke-width="1"></path><path id="Ellipse 18" stroke="#000000" stroke-linecap="round" stroke-linejoin="round" d="M2.9375 32.3125a11.75 11.75 0 1 0 23.5 0 11.75 11.75 0 1 0 -23.5 0" stroke-width="1"></path><path id="Vector 972" stroke="#000000" stroke-linecap="round" stroke-linejoin="round" d="m19.583333333333332 28.395833333333332 -5.759458333333333 7.833333333333333L9.791666666666666 31.65939583333333" stroke-width="1"></path></g></svg>