<?xml version="1.0" encoding="UTF-8"?>
<svg id="_Слой_1" data-name="Слой 1" xmlns="http://www.w3.org/2000/svg" viewBox="0 0 442.67 285.33">
  <defs>
    <style>
      .cls-1 {
        fill: #c49369;
      }

      .cls-2 {
        fill: #572314;
      }

      .cls-3 {
        fill: #ea543a;
      }
    </style>
  </defs>
  <g>
    <path class="cls-2" d="M144.91,135.74v-38.12h11.44l11.44,12.96,10.59-12.96h11.1v38.12h-12.71v-18.72l-9.23,10.59h-.25l-9.66-10.59v18.72h-12.71Z"/>
    <path class="cls-2" d="M194.79,116.68c0-5.84,1.95-10.59,5.76-14.4,3.9-3.81,9.06-5.68,15.42-5.68s11.52,1.86,15.33,5.68c3.9,3.81,5.84,8.55,5.84,14.4s-1.95,10.59-5.84,14.4c-3.81,3.81-8.98,5.68-15.33,5.68s-11.52-1.86-15.42-5.68c-3.81-3.81-5.76-8.56-5.76-14.4ZM215.97,124.9c4.4,0,7.62-3.13,7.62-8.22s-3.3-8.22-7.62-8.22-7.62,3.22-7.62,8.22,3.22,8.22,7.62,8.22Z"/>
    <path class="cls-2" d="M255.19,135.74h-12.71v-38.12h12.71v19.91l13.55-19.91h12.71v38.12h-12.71v-19.91l-13.55,19.91ZM258.75,78.99c0,3.3,1.19,4.91,3.56,4.91,2.12,0,3.22-1.61,3.22-4.91h11.01c0,8.39-5.08,14.4-14.23,14.4-9.91,0-14.57-5.84-14.57-14.4h11.01Z"/>
    <path class="cls-2" d="M77.91,131.76c-1.36,1.86-2.96,3.13-4.91,3.81-1.95.68-4.32,1.27-7.12,1.69s-5.25,1.19-7.37,2.12c-5.76,2.63-8.98,8.72-9.66,18.38h.17c2.46-5.34,8.64-8.89,15.08-8.89,10.84,0,17.7,7.45,17.7,18.97,0,5.42-1.86,10.08-5.51,13.89-3.64,3.81-8.39,5.68-14.06,5.68-6.18,0-11.1-2.12-14.74-6.35-3.64-4.24-5.42-9.99-5.42-17.36,0-16.52,4.74-26.77,14.15-30.75,2.29-1.02,4.83-1.69,7.45-2.12,5.34-.93,8.3-1.44,10.59-4.4l3.64,5.34ZM62.07,181.05c3.64,0,6.69-1.27,8.98-3.73,2.37-2.46,3.56-5.51,3.56-9.15,0-7.71-4.49-12.96-12.2-12.96-3.39,0-6.27.93-8.64,2.88-2.37,1.95-3.9,4.24-4.49,6.86,0,9.74,5.25,16.09,12.79,16.09Z"/>
    <path class="cls-2" d="M94.68,186.56h-6.78v-38.12h6.78v28.38l22.02-28.38h6.78v38.12h-6.78v-28.38l-22.02,28.38Z"/>
    <path class="cls-2" d="M135.59,185.97c-3.13-1.02-5.34-2.29-6.61-3.73l3.47-5.08c3.05,2.46,7.79,4.15,11.27,4.15,5.84,0,10-2.54,10-6.27,0-3.13-2.8-4.91-7.45-4.91h-6.44v-5.51h6.01c3.81,0,6.61-2.37,6.61-5.42,0-3.39-3.13-5.51-8.13-5.51-4.07,0-7.88,1.44-11.44,4.24l-2.63-5.25c3.05-3.13,8.98-5.08,15.08-5.08,9.15,0,14.31,3.9,14.31,10.25,0,4.4-2.2,7.37-6.69,8.98v.17c5.08.59,7.96,4.32,7.96,8.98,0,7.03-6.61,11.44-16.18,11.44-2.96,0-6.01-.51-9.15-1.44Z"/>
    <path class="cls-2" d="M195.56,186.56v-16.09h-21.18v16.09h-6.78v-38.12h6.78v15.67h21.18v-15.67h6.78v38.12h-6.78Z"/>
    <path class="cls-2" d="M243.16,182.41c-3.64,3.3-8.47,5-14.32,5-6.18,0-11.1-1.78-14.82-5.42-3.73-3.64-5.59-8.47-5.59-14.48s1.78-10.5,5.25-14.23c3.47-3.81,8.3-5.68,14.4-5.68,5,0,9.23,1.61,12.62,4.91,3.39,3.22,5.08,7.37,5.08,12.54,0,1.78-.17,3.3-.42,4.57h-29.31c.59,7.12,5.76,11.43,13.3,11.43,5,0,8.89-1.36,11.69-3.98l2.12,5.34ZM215.63,164.11h23.12c-.34-6.35-4.49-10.16-11.01-10.16s-11.35,4.15-12.11,10.16Z"/>
    <path class="cls-2" d="M283.39,181.05c-3.13,4.07-8.64,6.35-14.65,6.35s-11.01-1.78-14.82-5.42c-3.73-3.64-5.59-8.47-5.59-14.48,0-5.59,1.86-10.33,5.51-14.15,3.64-3.81,8.3-5.76,13.81-5.76,6.69,0,11.69,1.69,14.99,5l-3.13,5.34c-2.88-2.63-6.52-3.98-10.93-3.98-3.56,0-6.61,1.27-9.23,3.9-2.54,2.54-3.81,5.76-3.81,9.66s1.27,7.37,3.9,9.83c2.63,2.46,5.93,3.73,9.83,3.73,4.4,0,8.05-1.61,10.93-4.91l3.22,4.91Z"/>
  </g>
  <g>
    <polygon class="cls-3" points="362.46 198.61 349.73 185.9 337 198.61 349.73 225.19 362.46 198.61"/>
    <g>
      <path class="cls-1" d="M349.67,112.79c-4.88,0-8.84,3.96-8.84,8.84s3.96,8.84,8.84,8.84,8.84-3.96,8.84-8.84-3.96-8.84-8.84-8.84"/>
      <path class="cls-1" d="M349.73,73.1c-2.69,1.38-37.9,19.99-37.9,49.71,0,25.43,20.72,63.99,20.72,63.99l17.18-17.21,17.18,17.21s20.72-38.57,20.72-63.99c0-29.73-35.21-48.33-37.9-49.71M361.07,157.99l-11.34-11.36-11.34,11.36c-.58-1.58-8.18-22.15-8.18-35.57,0-18.1,18.16-28.25,19.52-28.99,1.36.74,19.52,10.89,19.52,28.99,0,13.42-7.6,33.99-8.18,35.57"/>
      <rect class="cls-1" x="378.47" y="63.94" width="18.32" height="18.32" transform="translate(61.84 295.51) rotate(-45)"/>
    </g>
  </g>
</svg>